<?xml version="1.0" encoding="UTF-8" standalone="no"?>
<!-- Created with Inkscape (http://www.inkscape.org/) -->

<svg
   xmlns:dc="http://purl.org/dc/elements/1.1/"
   xmlns:cc="http://creativecommons.org/ns#"
   xmlns:rdf="http://www.w3.org/1999/02/22-rdf-syntax-ns#"
   xmlns:svg="http://www.w3.org/2000/svg"
   xmlns="http://www.w3.org/2000/svg"
   xmlns:sodipodi="http://sodipodi.sourceforge.net/DTD/sodipodi-0.dtd"
   xmlns:inkscape="http://www.inkscape.org/namespaces/inkscape"
   id="svg3344"
   version="1.1"
   inkscape:version="0.91 r13725"
   xml:space="preserve"
   width="354.33063"
   height="89.398376"
   viewBox="0 0 354.33063 89.398371"
   sodipodi:docname="Puulon vaakalogo ei suoja-aluetta.svg"><metadata
     id="metadata3350"><rdf:RDF><cc:Work
         rdf:about=""><dc:format>image/svg+xml</dc:format><dc:type
           rdf:resource="http://purl.org/dc/dcmitype/StillImage" /><dc:title></dc:title></cc:Work></rdf:RDF></metadata><defs
     id="defs3348" /><sodipodi:namedview
     pagecolor="#ffffff"
     bordercolor="#666666"
     borderopacity="1"
     objecttolerance="10"
     gridtolerance="10"
     guidetolerance="10"
     inkscape:pageopacity="0"
     inkscape:pageshadow="2"
     inkscape:window-width="2380"
     inkscape:window-height="1604"
     id="namedview3346"
     showgrid="false"
     inkscape:zoom="1.9849629"
     inkscape:cx="103.6123"
     inkscape:cy="44.195342"
     inkscape:window-x="1279"
     inkscape:window-y="376"
     inkscape:window-maximized="0"
     inkscape:current-layer="g3352"
     fit-margin-top="0"
     fit-margin-left="0"
     fit-margin-right="0"
     fit-margin-bottom="0" /><g
     id="g3352"
     inkscape:groupmode="layer"
     inkscape:label="Puulon vaakalogo"
     transform="matrix(1.25,0,0,-1.25,-35.433125,115.56537)"><path
       style="fill:#2b2b2a;fill-opacity:1;fill-rule:evenodd;stroke:none"
       d="M 44.699219 0 C 20.012594 0 5.288789e-018 20.012594 0 44.699219 C 0 59.932261 7.6254975 73.377385 19.261719 81.447266 L 19.261719 44.519531 C 19.262094 41.456656 20.558203 39.765406 23.501953 39.816406 L 57.630859 39.816406 C 58.895109 39.839531 59.668219 39.239375 59.652344 37.640625 L 59.628906 2.5644531 C 54.95906 0.90966077 49.936224 1.1219562e-018 44.699219 0 z M 69.957031 7.8242188 L 69.957031 45.318359 C 69.921656 48.776734 67.787563 50.137188 64.210938 50.054688 L 31.4375 50.054688 C 30.069125 50.013563 29.477828 50.60825 29.517578 51.71875 L 29.517578 86.75 C 34.257745 88.46168 39.368798 89.398438 44.699219 89.398438 C 69.386094 89.398438 89.398438 69.385719 89.398438 44.699219 C 89.398438 29.387153 81.695292 15.879746 69.957031 7.8242188 z "
       transform="matrix(0.8,0,0,-0.8,28.3465,92.452299)"
       id="path3354" /><path
       d="m 119.8505,65.5608 16.2176,-0.0564 0.7747,-0.7072 0.0173,-15.7598 -0.8728,-0.879 -12.5583,-0.0145 0.038,-9.4093 13.8396,-0.0125 c 4.5926,0 8.9759,3.1958 8.9753,8.5612 l 3e-4,19.063 c 0.001,3.7123 -3.049,7.5745 -6.8284,7.9671 -1.0406,0.108 -28.8819,0.1043 -29.4684,-0.0448 l 0.0252,-45.6925 9.0278,0.0014 0.1293,36.193 0.6828,0.7903 z"
       style="fill:#2b2b2a;fill-opacity:1;fill-rule:evenodd;stroke:none"
       id="path3356"
       inkscape:connector-curvature="0" /><path
       d="m 247.3393,65.5622 16.6175,-0.0362 0.8048,-0.8431 -0.0377,-16.3862 -0.7591,-0.7855 -16.7466,0.0119 -0.8175,0.8643 -0.0215,16.3003 0.9601,0.8745 z m -9.707,-19.3524 c 0.3251,-2.2453 1.3059,-4.5394 3.257,-5.8342 2.7513,-1.8261 4.0065,-1.656 7.3534,-1.6546 5.8904,0.0025 12.0878,-0.1885 17.9396,0.0116 2.1728,0.0743 4.4986,1.3533 5.9468,3.0617 1.8261,2.154 1.7546,4.3603 1.7546,7.1263 0,5.8935 0.1863,12.0926 -0.0113,17.9484 -0.0479,1.4182 -1.146,3.6045 -2.1333,4.6531 -1.3295,1.4122 -3.1992,2.4559 -5.0582,2.7793 -0.8526,0.1483 -20.3499,0.0553 -21.2808,0.0301 -1.9057,-0.0516 -3.4767,-0.8286 -4.8847,-1.9256 -0.4921,-0.3832 -0.6862,-0.7276 -1.0695,-1.1406 -0.5017,-0.5406 -1.3595,-2.2547 -1.5298,-3.0084 -0.3164,-1.4023 -0.3011,-2.6538 -0.3005,-4.1052 l 0.0167,-17.9419 z"
       style="fill:#2b2b2a;fill-opacity:1;fill-rule:evenodd;stroke:none"
       id="path3358"
       inkscape:connector-curvature="0" /><path
       d="m 187.9733,74.2691 -0.1038,-8.9555 -2e-4,-18.0711 c 8e-4,-2.255 0.9124,-4.911 2.6129,-6.298 2.4392,-1.9894 3.6973,-2.2145 6.7904,-2.1691 2.9115,0.0425 5.9664,-0.0541 8.9039,-0.0541 3.4866,0 15.4919,-0.18 17.9581,0.0207 l -0.0479,35.577 -9.2994,0 c -0.3659,-0.7699 0.007,-22.9807 -0.1184,-26.0365 l -0.7722,-0.7713 -16.1045,0.0227 -0.8005,0.8538 -0.003,25.9313 -9.015,-0.0499 z"
       style="fill:#2b2b2a;fill-opacity:1;fill-rule:evenodd;stroke:none"
       id="path3360"
       inkscape:connector-curvature="0" /><path
       d="m 149.0349,74.2691 -0.1038,-8.9555 -2e-4,-18.0711 c 8e-4,-2.255 0.9124,-4.911 2.6129,-6.298 2.4393,-1.9894 3.6976,-2.2145 6.7904,-2.1691 2.9115,0.0425 5.9664,-0.0541 8.9037,-0.0541 3.4871,0 15.4919,-0.18 17.9583,0.0207 l -0.0479,35.577 -9.2994,0 c -0.3659,-0.7699 0.007,-22.9807 -0.1184,-26.0365 l -0.7722,-0.7713 -16.1045,0.0227 -0.8005,0.8538 -0.003,25.9313 -9.015,-0.0499 z"
       style="fill:#2b2b2a;fill-opacity:1;fill-rule:evenodd;stroke:none"
       id="path3362"
       inkscape:connector-curvature="0" /><path
       d="m 285.7728,65.2241 16.1467,-0.0403 0.7903,-0.7897 0.0253,-25.672 9.0759,0.0439 -0.0947,29.0197 c -1.0808,4.5542 -4.1025,6.2178 -9.407,6.2178 -2.9679,-3e-4 -5.9358,0 -8.9036,0 -3.2565,0 -15.6946,0.1698 -17.8402,-0.0241 l 0.0389,-35.2587 9.3943,0.0453 0.0107,25.6488 0.7634,0.8093 z"
       style="fill:#2b2b2a;fill-opacity:1;fill-rule:evenodd;stroke:none"
       id="path3364"
       inkscape:connector-curvature="0" /><path
       d="m 226.1886,38.7221 9.0714,0.0079 -0.0451,46.0798 -9.0615,-0.0221 0.0352,-46.0656 z"
       style="fill:#2b2b2a;fill-opacity:1;fill-rule:evenodd;stroke:none"
       id="path3366"
       inkscape:connector-curvature="0" /></g></svg>